# xmcd CD database file
#
# Track frame offsets:
#	150
#	12045
#	26308
#	37205
#	53080
#	69370
#	85514
#	93480
#	112512
#	132274
#	150224
#
# Disc length: 2285 seconds
#
# Revision: 0
# Processed by: cddbd v1.5.1PL2 Copyright (c) Steve Scherf et al.
# Submitted via: CDex 1.51
#
DISCID=6f08eb0b
DTITLE=The Mills Brothers - The Very Best Of 2
DYEAR=2001
DGENRE=Jazz
TTITLE0=You're Nobody 'til Somebody Loves You
TTITLE1=Yellow Bird
TTITLE2=Opus One
TTITLE3=Lazy River
TTITLE4=Cab Driver
TTITLE5=I'am Sorry I Answered The Phone
TTITLE6=Bye Bye Blackbird
TTITLE7=You Always Hurt The One You Love
TTITLE8=Basin Street Blues
TTITLE9=Paper Doll
TTITLE10=Be My Life's Compagnaion
EXTD=YEAR: 2001
EXTT0=
EXTT1=
EXTT2=
EXTT3=
EXTT4=
EXTT5=
EXTT6=
EXTT7=
EXTT8=
EXTT9=
EXTT10=
PLAYORDER=
